<?xml version="1.0" standalone="no"?>
<!DOCTYPE svg PUBLIC "-//W3C//DTD SVG 20010904//EN"
 "http://www.w3.org/TR/2001/REC-SVG-20010904/DTD/svg10.dtd">
<svg version="1.0" xmlns="http://www.w3.org/2000/svg"
 width="386.000000pt" height="387.000000pt" viewBox="0 0 386.000000 387.000000"
 preserveAspectRatio="xMidYMid meet">
<metadata>Created by letter-logo.com</metadata>
<g transform="translate(0.000000,387.000000) scale(0.100000,-0.100000)"
fill="#000000" stroke="none">
<path d="M1720 3859 c-288 -30 -616 -148 -855 -307 -473 -315 -779 -810 -855
-1388 -19 -140 -8 -461 19 -599 120 -594 508 -1096 1058 -1369 706 -351 1593
-216 2151 328 l62 60 265 -264 c195 -194 268 -261 276 -253 8 8 11 296 11
1040 0 1043 -1 1071 -38 1236 l-16 67 -744 0 -744 0 -83 -41 c-168 -84 -816
-434 -814 -441 1 -3 117 -108 257 -232 l255 -225 297 -1 297 0 180 165 181
166 0 -409 0 -409 -452 -6 c-281 -5 -496 -3 -565 3 -233 21 -425 111 -594 279
-253 251 -341 623 -232 976 93 302 350 548 662 633 l96 27 898 3 c657 2 897 6
897 14 0 20 -146 230 -219 315 -182 212 -460 404 -746 516 -258 101 -618 147
-905 116z"/>
</g>
</svg>
